<svg width="1109" height="24" viewBox="0 0 1109 24" fill="none" xmlns="http://www.w3.org/2000/svg">
<path d="M167.184 6.8V18H166.016V12.832H159.008V18H157.824V6.8H159.008V11.792H166.016V6.8H167.184ZM174.04 18.08C173.229 18.08 172.498 17.8987 171.848 17.536C171.197 17.1627 170.685 16.6507 170.312 16C169.938 15.3493 169.752 14.6133 169.752 13.792C169.752 12.9707 169.938 12.2347 170.312 11.584C170.685 10.9333 171.197 10.4267 171.848 10.064C172.498 9.70133 173.229 9.52 174.04 9.52C174.85 9.52 175.581 9.70133 176.232 10.064C176.882 10.4267 177.389 10.9333 177.752 11.584C178.125 12.2347 178.312 12.9707 178.312 13.792C178.312 14.6133 178.125 15.3493 177.752 16C177.389 16.6507 176.882 17.1627 176.232 17.536C175.581 17.8987 174.85 18.08 174.04 18.08ZM174.04 17.072C174.637 17.072 175.17 16.9387 175.64 16.672C176.12 16.3947 176.493 16.0053 176.76 15.504C177.026 15.0027 177.16 14.432 177.16 13.792C177.16 13.152 177.026 12.5813 176.76 12.08C176.493 11.5787 176.12 11.1947 175.64 10.928C175.17 10.6507 174.637 10.512 174.04 10.512C173.442 10.512 172.904 10.6507 172.424 10.928C171.954 11.1947 171.581 11.5787 171.304 12.08C171.037 12.5813 170.904 13.152 170.904 13.792C170.904 14.432 171.037 15.0027 171.304 15.504C171.581 16.0053 171.954 16.3947 172.424 16.672C172.904 16.9387 173.442 17.072 174.04 17.072ZM192.748 9.584L189.564 18H188.493L185.837 11.104L183.181 18H182.109L178.941 9.584H180.028L182.668 16.736L185.372 9.584H186.348L189.036 16.736L191.708 9.584H192.748ZM198.646 9.584H199.783V18H198.646V9.584ZM199.223 7.744C198.988 7.744 198.79 7.664 198.63 7.504C198.47 7.344 198.39 7.152 198.39 6.928C198.39 6.71467 198.47 6.528 198.63 6.368C198.79 6.208 198.988 6.128 199.223 6.128C199.457 6.128 199.655 6.208 199.815 6.368C199.975 6.51733 200.055 6.69867 200.055 6.912C200.055 7.14667 199.975 7.344 199.815 7.504C199.655 7.664 199.457 7.744 199.223 7.744ZM207.375 17.488C207.162 17.68 206.895 17.8293 206.575 17.936C206.266 18.032 205.941 18.08 205.599 18.08C204.81 18.08 204.202 17.8667 203.775 17.44C203.349 17.0133 203.135 16.4107 203.135 15.632V10.544H201.631V9.584H203.135V7.744H204.271V9.584H206.831V10.544H204.271V15.568C204.271 16.0693 204.394 16.4533 204.639 16.72C204.895 16.976 205.258 17.104 205.727 17.104C205.962 17.104 206.186 17.0667 206.399 16.992C206.623 16.9173 206.815 16.8107 206.975 16.672L207.375 17.488ZM225.983 9.584L222.799 18H221.727L219.071 11.104L216.415 18H215.343L212.175 9.584H213.263L215.903 16.736L218.607 9.584H219.583L222.271 16.736L224.943 9.584H225.983ZM230.899 18.08C230.088 18.08 229.358 17.8987 228.707 17.536C228.056 17.1627 227.544 16.6507 227.171 16C226.798 15.3493 226.611 14.6133 226.611 13.792C226.611 12.9707 226.798 12.2347 227.171 11.584C227.544 10.9333 228.056 10.4267 228.707 10.064C229.358 9.70133 230.088 9.52 230.899 9.52C231.71 9.52 232.44 9.70133 233.091 10.064C233.742 10.4267 234.248 10.9333 234.611 11.584C234.984 12.2347 235.171 12.9707 235.171 13.792C235.171 14.6133 234.984 15.3493 234.611 16C234.248 16.6507 233.742 17.1627 233.091 17.536C232.44 17.8987 231.71 18.08 230.899 18.08ZM230.899 17.072C231.496 17.072 232.03 16.9387 232.499 16.672C232.979 16.3947 233.352 16.0053 233.619 15.504C233.886 15.0027 234.019 14.432 234.019 13.792C234.019 13.152 233.886 12.5813 233.619 12.08C233.352 11.5787 232.979 11.1947 232.499 10.928C232.03 10.6507 231.496 10.512 230.899 10.512C230.302 10.512 229.763 10.6507 229.283 10.928C228.814 11.1947 228.44 11.5787 228.163 12.08C227.896 12.5813 227.763 13.152 227.763 13.792C227.763 14.432 227.896 15.0027 228.163 15.504C228.44 16.0053 228.814 16.3947 229.283 16.672C229.763 16.9387 230.302 17.072 230.899 17.072ZM238.578 11.232C238.845 10.6667 239.24 10.24 239.762 9.952C240.296 9.664 240.952 9.52 241.73 9.52V10.624L241.458 10.608C240.573 10.608 239.88 10.88 239.378 11.424C238.877 11.968 238.626 12.7307 238.626 13.712V18H237.49V9.584H238.578V11.232ZM246.907 13.776L244.923 15.6V18H243.787V6.128H244.923V14.176L249.947 9.584H251.355L247.755 13.024L251.691 18H250.299L246.907 13.776ZM255.402 18.08C254.72 18.08 254.064 17.984 253.434 17.792C252.816 17.5893 252.331 17.3387 251.979 17.04L252.49 16.144C252.842 16.4213 253.285 16.6507 253.819 16.832C254.352 17.0027 254.907 17.088 255.483 17.088C256.251 17.088 256.816 16.9707 257.179 16.736C257.552 16.4907 257.739 16.1493 257.739 15.712C257.739 15.4027 257.637 15.1627 257.435 14.992C257.232 14.8107 256.976 14.6773 256.667 14.592C256.357 14.496 255.946 14.4053 255.434 14.32C254.752 14.192 254.203 14.064 253.786 13.936C253.371 13.7973 253.013 13.568 252.714 13.248C252.427 12.928 252.283 12.4853 252.283 11.92C252.283 11.216 252.576 10.64 253.163 10.192C253.749 9.744 254.565 9.52 255.61 9.52C256.154 9.52 256.698 9.59467 257.242 9.744C257.786 9.88267 258.234 10.0693 258.587 10.304L258.09 11.216C257.397 10.736 256.57 10.496 255.61 10.496C254.885 10.496 254.336 10.624 253.963 10.88C253.6 11.136 253.418 11.472 253.418 11.888C253.418 12.208 253.52 12.464 253.723 12.656C253.936 12.848 254.197 12.992 254.507 13.088C254.816 13.1733 255.242 13.264 255.786 13.36C256.458 13.488 256.997 13.616 257.403 13.744C257.808 13.872 258.155 14.0907 258.443 14.4C258.73 14.7093 258.874 15.136 258.874 15.68C258.874 16.416 258.565 17.0027 257.946 17.44C257.339 17.8667 256.491 18.08 255.402 18.08Z" fill="#1F2431"/>
<path d="M303.88 12.224C304.616 12.384 305.181 12.704 305.576 13.184C305.981 13.6533 306.184 14.2613 306.184 15.008C306.184 15.968 305.827 16.7093 305.112 17.232C304.408 17.744 303.363 18 301.976 18H296.824V6.8H301.656C302.904 6.8 303.869 7.05067 304.552 7.552C305.245 8.05333 305.592 8.76267 305.592 9.68C305.592 10.2987 305.437 10.8267 305.128 11.264C304.829 11.6907 304.413 12.0107 303.88 12.224ZM298.008 7.776V11.84H301.576C302.483 11.84 303.181 11.6693 303.672 11.328C304.163 10.976 304.408 10.4693 304.408 9.808C304.408 9.14667 304.163 8.64533 303.672 8.304C303.181 7.952 302.483 7.776 301.576 7.776H298.008ZM301.96 17.024C302.963 17.024 303.72 16.8533 304.232 16.512C304.744 16.1707 305 15.6373 305 14.912C305 13.5147 303.987 12.816 301.96 12.816H298.008V17.024H301.96ZM308.646 6.128H309.783V18H308.646V6.128ZM316.383 18.08C315.573 18.08 314.842 17.8987 314.191 17.536C313.541 17.1627 313.029 16.6507 312.655 16C312.282 15.3493 312.095 14.6133 312.095 13.792C312.095 12.9707 312.282 12.2347 312.655 11.584C313.029 10.9333 313.541 10.4267 314.191 10.064C314.842 9.70133 315.573 9.52 316.383 9.52C317.194 9.52 317.925 9.70133 318.575 10.064C319.226 10.4267 319.733 10.9333 320.095 11.584C320.469 12.2347 320.655 12.9707 320.655 13.792C320.655 14.6133 320.469 15.3493 320.095 16C319.733 16.6507 319.226 17.1627 318.575 17.536C317.925 17.8987 317.194 18.08 316.383 18.08ZM316.383 17.072C316.981 17.072 317.514 16.9387 317.983 16.672C318.463 16.3947 318.837 16.0053 319.103 15.504C319.37 15.0027 319.503 14.432 319.503 13.792C319.503 13.152 319.37 12.5813 319.103 12.08C318.837 11.5787 318.463 11.1947 317.983 10.928C317.514 10.6507 316.981 10.512 316.383 10.512C315.786 10.512 315.247 10.6507 314.767 10.928C314.298 11.1947 313.925 11.5787 313.647 12.08C313.381 12.5813 313.247 13.152 313.247 13.792C313.247 14.432 313.381 15.0027 313.647 15.504C313.925 16.0053 314.298 16.3947 314.767 16.672C315.247 16.9387 315.786 17.072 316.383 17.072ZM330.767 9.584V16.976C330.767 18.4053 330.415 19.4613 329.711 20.144C329.017 20.8373 327.967 21.184 326.559 21.184C325.78 21.184 325.039 21.0667 324.335 20.832C323.641 20.608 323.076 20.2933 322.639 19.888L323.215 19.024C323.62 19.3867 324.111 19.6693 324.687 19.872C325.273 20.0747 325.887 20.176 326.527 20.176C327.593 20.176 328.377 19.9253 328.879 19.424C329.38 18.9333 329.631 18.1653 329.631 17.12V16.048C329.279 16.5813 328.815 16.9867 328.239 17.264C327.673 17.5413 327.044 17.68 326.351 17.68C325.561 17.68 324.841 17.5093 324.191 17.168C323.551 16.816 323.044 16.3307 322.671 15.712C322.308 15.0827 322.127 14.3733 322.127 13.584C322.127 12.7947 322.308 12.0907 322.671 11.472C323.044 10.8533 323.551 10.3733 324.191 10.032C324.831 9.69067 325.551 9.52 326.351 9.52C327.065 9.52 327.711 9.664 328.287 9.952C328.863 10.24 329.327 10.656 329.679 11.2V9.584H330.767ZM326.463 16.672C327.071 16.672 327.62 16.544 328.111 16.288C328.601 16.0213 328.98 15.6533 329.247 15.184C329.524 14.7147 329.663 14.1813 329.663 13.584C329.663 12.9867 329.524 12.4587 329.247 12C328.98 11.5307 328.601 11.168 328.111 10.912C327.631 10.6453 327.081 10.512 326.463 10.512C325.855 10.512 325.305 10.64 324.815 10.896C324.335 11.152 323.956 11.5147 323.679 11.984C323.412 12.4533 323.279 12.9867 323.279 13.584C323.279 14.1813 323.412 14.7147 323.679 15.184C323.956 15.6533 324.335 16.0213 324.815 16.288C325.305 16.544 325.855 16.672 326.463 16.672Z" fill="#1F2431"/>
<path d="M372.912 18.096C372.08 18.096 371.28 17.9627 370.512 17.696C369.755 17.4293 369.168 17.0773 368.752 16.64L369.216 15.728C369.621 16.1333 370.16 16.464 370.832 16.72C371.504 16.9653 372.197 17.088 372.912 17.088C373.915 17.088 374.667 16.9067 375.168 16.544C375.669 16.1707 375.92 15.6907 375.92 15.104C375.92 14.656 375.781 14.2987 375.504 14.032C375.237 13.7653 374.907 13.5627 374.512 13.424C374.117 13.2747 373.568 13.1147 372.864 12.944C372.021 12.7307 371.349 12.528 370.848 12.336C370.347 12.1333 369.915 11.8293 369.552 11.424C369.2 11.0187 369.024 10.4693 369.024 9.776C369.024 9.21067 369.173 8.69867 369.472 8.24C369.771 7.77067 370.229 7.39733 370.848 7.12C371.467 6.84267 372.235 6.704 373.152 6.704C373.792 6.704 374.416 6.79467 375.024 6.976C375.643 7.14667 376.176 7.38667 376.624 7.696L376.224 8.64C375.755 8.33067 375.253 8.10133 374.72 7.952C374.187 7.792 373.664 7.712 373.152 7.712C372.171 7.712 371.429 7.904 370.928 8.288C370.437 8.66133 370.192 9.14667 370.192 9.744C370.192 10.192 370.325 10.5547 370.592 10.832C370.869 11.0987 371.211 11.3067 371.616 11.456C372.032 11.5947 372.587 11.7493 373.28 11.92C374.101 12.1227 374.763 12.3253 375.264 12.528C375.776 12.72 376.208 13.0187 376.56 13.424C376.912 13.8187 377.088 14.3573 377.088 15.04C377.088 15.6053 376.933 16.1227 376.624 16.592C376.325 17.0507 375.861 17.4187 375.232 17.696C374.603 17.9627 373.829 18.096 372.912 18.096ZM387.012 9.584V18H385.924V16.464C385.625 16.976 385.214 17.376 384.692 17.664C384.169 17.9413 383.572 18.08 382.9 18.08C381.801 18.08 380.932 17.776 380.292 17.168C379.662 16.5493 379.348 15.648 379.348 14.464V9.584H380.484V14.352C380.484 15.2373 380.702 15.9093 381.14 16.368C381.577 16.8267 382.201 17.056 383.012 17.056C383.897 17.056 384.596 16.7893 385.108 16.256C385.62 15.712 385.876 14.96 385.876 14V9.584H387.012ZM394.529 9.52C395.319 9.52 396.033 9.70133 396.673 10.064C397.313 10.416 397.815 10.9173 398.177 11.568C398.54 12.2187 398.721 12.96 398.721 13.792C398.721 14.6347 398.54 15.3813 398.177 16.032C397.815 16.6827 397.313 17.1893 396.673 17.552C396.044 17.904 395.329 18.08 394.529 18.08C393.847 18.08 393.228 17.9413 392.673 17.664C392.129 17.376 391.681 16.96 391.329 16.416V21.104H390.193V9.584H391.281V11.248C391.623 10.6933 392.071 10.2667 392.625 9.968C393.191 9.66933 393.825 9.52 394.529 9.52ZM394.449 17.072C395.036 17.072 395.569 16.9387 396.049 16.672C396.529 16.3947 396.903 16.0053 397.169 15.504C397.447 15.0027 397.585 14.432 397.585 13.792C397.585 13.152 397.447 12.5867 397.169 12.096C396.903 11.5947 396.529 11.2053 396.049 10.928C395.569 10.6507 395.036 10.512 394.449 10.512C393.852 10.512 393.313 10.6507 392.833 10.928C392.364 11.2053 391.991 11.5947 391.713 12.096C391.447 12.5867 391.313 13.152 391.313 13.792C391.313 14.432 391.447 15.0027 391.713 15.504C391.991 16.0053 392.364 16.3947 392.833 16.672C393.313 16.9387 393.852 17.072 394.449 17.072ZM405.373 9.52C406.162 9.52 406.877 9.70133 407.517 10.064C408.157 10.416 408.658 10.9173 409.021 11.568C409.384 12.2187 409.565 12.96 409.565 13.792C409.565 14.6347 409.384 15.3813 409.021 16.032C408.658 16.6827 408.157 17.1893 407.517 17.552C406.888 17.904 406.173 18.08 405.373 18.08C404.69 18.08 404.072 17.9413 403.517 17.664C402.973 17.376 402.525 16.96 402.173 16.416V21.104H401.037V9.584H402.125V11.248C402.466 10.6933 402.914 10.2667 403.469 9.968C404.034 9.66933 404.669 9.52 405.373 9.52ZM405.293 17.072C405.88 17.072 406.413 16.9387 406.893 16.672C407.373 16.3947 407.746 16.0053 408.013 15.504C408.29 15.0027 408.429 14.432 408.429 13.792C408.429 13.152 408.29 12.5867 408.013 12.096C407.746 11.5947 407.373 11.2053 406.893 10.928C406.413 10.6507 405.88 10.512 405.293 10.512C404.696 10.512 404.157 10.6507 403.677 10.928C403.208 11.2053 402.834 11.5947 402.557 12.096C402.29 12.5867 402.157 13.152 402.157 13.792C402.157 14.432 402.29 15.0027 402.557 15.504C402.834 16.0053 403.208 16.3947 403.677 16.672C404.157 16.9387 404.696 17.072 405.293 17.072ZM415.321 18.08C414.51 18.08 413.78 17.8987 413.129 17.536C412.478 17.1627 411.966 16.6507 411.593 16C411.22 15.3493 411.033 14.6133 411.033 13.792C411.033 12.9707 411.22 12.2347 411.593 11.584C411.966 10.9333 412.478 10.4267 413.129 10.064C413.78 9.70133 414.51 9.52 415.321 9.52C416.132 9.52 416.862 9.70133 417.513 10.064C418.164 10.4267 418.67 10.9333 419.033 11.584C419.406 12.2347 419.593 12.9707 419.593 13.792C419.593 14.6133 419.406 15.3493 419.033 16C418.67 16.6507 418.164 17.1627 417.513 17.536C416.862 17.8987 416.132 18.08 415.321 18.08ZM415.321 17.072C415.918 17.072 416.452 16.9387 416.921 16.672C417.401 16.3947 417.774 16.0053 418.041 15.504C418.308 15.0027 418.441 14.432 418.441 13.792C418.441 13.152 418.308 12.5813 418.041 12.08C417.774 11.5787 417.401 11.1947 416.921 10.928C416.452 10.6507 415.918 10.512 415.321 10.512C414.724 10.512 414.185 10.6507 413.705 10.928C413.236 11.1947 412.862 11.5787 412.585 12.08C412.318 12.5813 412.185 13.152 412.185 13.792C412.185 14.432 412.318 15.0027 412.585 15.504C412.862 16.0053 413.236 16.3947 413.705 16.672C414.185 16.9387 414.724 17.072 415.321 17.072ZM423 11.232C423.267 10.6667 423.661 10.24 424.184 9.952C424.717 9.664 425.373 9.52 426.152 9.52V10.624L425.88 10.608C424.995 10.608 424.301 10.88 423.8 11.424C423.299 11.968 423.048 12.7307 423.048 13.712V18H421.912V9.584H423V11.232ZM433 17.488C432.787 17.68 432.52 17.8293 432.2 17.936C431.891 18.032 431.566 18.08 431.224 18.08C430.435 18.08 429.827 17.8667 429.4 17.44C428.974 17.0133 428.76 16.4107 428.76 15.632V10.544H427.256V9.584H428.76V7.744H429.896V9.584H432.456V10.544H429.896V15.568C429.896 16.0693 430.019 16.4533 430.264 16.72C430.52 16.976 430.883 17.104 431.352 17.104C431.587 17.104 431.811 17.0667 432.024 16.992C432.248 16.9173 432.44 16.8107 432.6 16.672L433 17.488Z" fill="#1F2431"/>
<path fill-rule="evenodd" clip-rule="evenodd" d="M28.8794 15.2922V4.86709H30.6254C31.3483 4.86709 32.0294 4.99586 32.6687 5.2534C33.3081 5.51093 33.8661 5.87258 34.342 6.33807C34.8182 6.80356 35.1951 7.35472 35.473 7.99181C35.7506 8.62917 35.8897 9.32727 35.8897 10.0864C35.8897 10.8003 35.7683 11.4603 35.5259 12.0657C35.2833 12.6714 34.9482 13.1976 34.5206 13.6452C34.0928 14.0925 33.5925 14.4539 33.0193 14.7296C32.4461 15.0053 31.8291 15.1702 31.1677 15.2244C30.9737 15.2426 30.7794 15.2582 30.5856 15.2719C30.3916 15.2854 30.1933 15.2922 29.9904 15.2922H28.8794ZM40.6255 12.8315C40.8636 11.9685 40.9827 11.058 40.9827 10.0998C40.9827 9.1509 40.8613 8.24251 40.6189 7.37488C40.3763 6.50724 40.0368 5.69854 39.6004 4.94826C39.164 4.19823 38.6369 3.52038 38.0198 2.91469C37.4025 2.30927 36.7214 1.78952 35.9762 1.35571C35.231 0.921892 34.4288 0.587768 33.5689 0.352557C32.7092 0.117605 31.8163 0 30.8905 0H24.3696C24.1667 0 24.0147 0.0589325 23.9134 0.176278C23.8118 0.293884 23.7614 0.447576 23.7614 0.637354V19.576C23.7614 19.8112 23.823 19.9646 23.9463 20.0368C24.0699 20.1092 24.211 20.1453 24.3696 20.1453H30.8905C31.8163 20.1453 32.7112 20.0301 33.5757 19.7998C34.4397 19.5692 35.2442 19.2419 35.9894 18.8169C36.7346 18.3921 37.4134 17.8768 38.0264 17.2714C38.6391 16.666 39.166 15.9902 39.607 15.2446C40.0477 14.499 40.3874 13.6947 40.6255 12.8315ZM61.1002 19.5827C61.1531 19.4428 61.1795 19.2959 61.1795 19.1422V3.86383C61.1795 3.70131 61.1531 3.55671 61.1002 3.43002C61.0472 3.30358 60.9588 3.19065 60.8357 3.09122C60.7385 2.99179 60.624 2.92844 60.4918 2.90144C60.3595 2.87418 60.2448 2.86068 60.1478 2.86068H58.1771C58.0006 2.86068 57.864 2.8721 57.767 2.89443C57.67 2.91728 57.5885 2.96219 57.5223 3.03021C57.4562 3.09797 57.3944 3.20181 57.3372 3.34201C57.2797 3.4822 57.207 3.66497 57.1188 3.89109L56.7353 5.12478C56.4972 4.77222 56.2196 4.44459 55.902 4.14162C55.5846 3.83891 55.2295 3.57903 54.8371 3.36226C54.4448 3.14548 54.0126 2.97361 53.541 2.84718C53.0694 2.72075 52.56 2.6574 52.0134 2.6574C50.814 2.6574 49.6899 2.8856 48.6404 3.34201C47.591 3.79841 46.6784 4.42642 45.9025 5.22629C45.1264 6.02616 44.5137 6.96623 44.0638 8.04597C43.6142 9.12622 43.3893 10.2945 43.3893 11.5505C43.3893 12.3821 43.4906 13.1796 43.6935 13.9431C43.8964 14.7072 44.1852 15.4188 44.5601 16.0784C44.9347 16.7381 45.382 17.3371 45.9025 17.8747C46.4228 18.4126 47.0024 18.8735 47.6419 19.2574C48.281 19.6417 48.969 19.9376 49.7053 20.1453C50.4414 20.3533 51.2109 20.4574 52.0134 20.4574C52.463 20.4574 52.8971 20.4008 53.3161 20.2878C53.7348 20.1746 54.1274 20.0259 54.4934 19.8405C54.8592 19.6552 55.1943 19.4451 55.4985 19.2099C55.8027 18.9752 56.074 18.7356 56.3121 18.4916L56.4838 19.1014C56.5368 19.2554 56.5877 19.3976 56.6361 19.5285C56.6844 19.6596 56.744 19.7704 56.8146 19.8608C56.885 19.9511 56.9778 20.0212 57.0925 20.0708C57.207 20.1206 57.3569 20.1453 57.5421 20.1453H60.1478C60.2448 20.1453 60.3595 20.1318 60.4918 20.1048C60.624 20.0776 60.7385 20.0145 60.8357 19.915C60.9588 19.8335 61.0472 19.7229 61.1002 19.5827ZM48.1509 11.5504C48.1509 12.1467 48.2411 12.7049 48.4219 13.2246C48.6028 13.7444 48.8606 14.194 49.1957 14.5736C49.5308 14.9532 49.9344 15.2538 50.406 15.475C50.8776 15.6967 51.4002 15.807 51.9734 15.807C52.5641 15.807 53.113 15.6967 53.6201 15.475C54.1272 15.2538 54.5679 14.9532 54.9428 14.5736C55.3174 14.194 55.6108 13.7444 55.8225 13.2246C56.034 12.7049 56.1399 12.1467 56.1399 11.5504C56.1399 10.972 56.034 10.4205 55.8225 9.89638C55.6108 9.37248 55.3174 8.9114 54.9428 8.51367C54.5679 8.11594 54.1272 7.80207 53.6201 7.57153C53.113 7.34099 52.5641 7.22572 51.9734 7.22572C51.4002 7.22572 50.8776 7.34099 50.406 7.57153C49.9344 7.80207 49.5308 8.11594 49.1957 8.51367C48.8606 8.9114 48.6028 9.37248 48.4219 9.89638C48.2411 10.4205 48.1509 10.972 48.1509 11.5504ZM69.4199 19.2461V23.5651C69.4199 23.8052 69.2299 24 68.9956 24H64.7785C64.5439 24 64.3539 23.8052 64.3539 23.5651V3.86371C64.3539 3.68302 64.3871 3.534 64.4532 3.4164C64.5193 3.29905 64.6009 3.19053 64.6979 3.0911C64.8124 2.99167 64.9314 2.92832 65.0551 2.90132C65.1784 2.87406 65.2975 2.86056 65.4122 2.86056H67.4095C67.5769 2.86056 67.7157 2.88782 67.8261 2.94208C67.9363 2.99608 68.0265 3.07085 68.0972 3.16561C68.1678 3.26063 68.2271 3.36889 68.2757 3.49091C68.3241 3.61293 68.3705 3.74637 68.4148 3.89097L68.7127 4.77081C68.8236 5.09844 69.2449 5.1688 69.4505 4.89361C69.5392 4.77496 69.6284 4.65528 69.7175 4.53482C69.9688 4.19602 70.2664 3.88864 70.6104 3.61293C70.9544 3.33722 71.3642 3.10927 71.8404 2.92832C72.3166 2.74763 72.8987 2.65729 73.5864 2.65729C74.7944 2.65729 75.9076 2.88549 76.9261 3.34189C77.9446 3.79829 78.8221 4.4263 79.5584 5.22617C80.2945 6.02605 80.87 6.96611 81.2844 8.04611C81.6988 9.12611 81.906 10.2944 81.906 11.5504C81.906 12.7976 81.6988 13.9635 81.2844 15.0479C80.87 16.1326 80.2945 17.0747 79.5584 17.8746C78.8221 18.6745 77.9446 19.3048 76.9261 19.7659C75.9076 20.2267 74.7944 20.4573 73.5864 20.4573C73.0129 20.4573 72.5192 20.3872 72.1051 20.247C71.6905 20.107 71.3224 19.924 71.0005 19.6981C70.6785 19.4723 70.3943 19.2236 70.1474 18.9523C69.8872 18.6664 69.4199 18.8552 69.4199 19.2461ZM69.0503 11.347C69.0767 10.7868 69.2069 10.258 69.4407 9.7608C69.674 9.2639 69.9784 8.83216 70.3533 8.4661C70.7279 8.1003 71.1644 7.81109 71.6626 7.59873C72.1608 7.38636 72.6877 7.27992 73.2432 7.27992C73.8075 7.27992 74.3232 7.39311 74.7908 7.61898C75.2582 7.84484 75.6591 8.15223 75.9945 8.54061C76.3294 8.92951 76.5898 9.38358 76.7749 9.90307C76.9601 10.4231 77.0525 10.9722 77.0525 11.5503C77.0525 12.1469 76.9601 12.7074 76.7749 13.2313C76.5898 13.7558 76.3294 14.2098 75.9945 14.5938C75.6591 14.978 75.2582 15.2831 74.7908 15.5089C74.3232 15.7348 73.8075 15.8477 73.2432 15.8477C72.67 15.8477 72.1277 15.7348 71.6162 15.5089C71.1048 15.2831 70.6595 14.978 70.2803 14.5938C69.9012 14.2098 69.6013 13.7558 69.3811 13.2313C69.1605 12.7074 69.0503 12.1469 69.0503 11.5503V11.347ZM89.6172 19.2332V23.5703C89.6172 23.8076 89.4295 24 89.1979 24H84.9706C84.7391 24 84.5512 23.8076 84.5512 23.5703V3.86371C84.5512 3.68302 84.5844 3.534 84.6505 3.4164C84.7166 3.29905 84.7982 3.19053 84.8952 3.0911C85.0097 2.99167 85.1287 2.92832 85.2523 2.90132C85.3757 2.87406 85.4947 2.86056 85.6095 2.86056H87.6067C87.7742 2.86056 87.913 2.88782 88.0234 2.94208C88.1336 2.99608 88.2238 3.07085 88.2944 3.16561C88.3651 3.26063 88.4244 3.36889 88.473 3.49091C88.5214 3.61293 88.5677 3.74637 88.6121 3.89097L88.913 4.7799C89.0227 5.10363 89.4388 5.17295 89.6422 4.90088C89.7327 4.7799 89.8236 4.65788 89.9148 4.53482C90.1661 4.19602 90.4637 3.88864 90.8077 3.61293C91.1516 3.33722 91.5615 3.10927 92.0377 2.92832C92.5139 2.74763 93.096 2.65729 93.7837 2.65729C94.9916 2.65729 96.1049 2.88549 97.1234 3.34189C98.1419 3.79829 99.0193 4.4263 99.7557 5.22617C100.492 6.02605 101.067 6.96611 101.482 8.04611C101.896 9.12611 102.103 10.2944 102.103 11.5504C102.103 12.7976 101.896 13.9635 101.482 15.0479C101.067 16.1326 100.492 17.0747 99.7557 17.8746C99.0193 18.6745 98.1419 19.3048 97.1234 19.7659C96.1049 20.2267 94.9916 20.4573 93.7837 20.4573C93.2102 20.4573 92.7165 20.3872 92.3024 20.247C91.8877 20.107 91.5197 19.924 91.1977 19.6981C90.8758 19.4723 90.5916 19.2236 90.3446 18.9523C90.3421 18.9497 90.3396 18.9468 90.3373 18.9442C90.0797 18.661 89.6172 18.8461 89.6172 19.2332ZM89.2467 11.347C89.273 10.7868 89.4032 10.258 89.637 9.7608C89.8703 9.2639 90.1747 8.83216 90.5496 8.4661C90.9243 8.1003 91.3607 7.81109 91.8589 7.59873C92.3572 7.38636 92.884 7.27992 93.4395 7.27992C94.0039 7.27992 94.5196 7.39311 94.9872 7.61898C95.4545 7.84484 95.8555 8.15223 96.1908 8.54061C96.5257 8.92951 96.7861 9.38358 96.9712 9.90307C97.1564 10.4231 97.2489 10.9722 97.2489 11.5503C97.2489 12.1469 97.1564 12.7074 96.9712 13.2313C96.7861 13.7558 96.5257 14.2098 96.1908 14.5938C95.8555 14.978 95.4545 15.2831 94.9872 15.5089C94.5196 15.7348 94.0039 15.8477 93.4395 15.8477C92.8663 15.8477 92.324 15.7348 91.8126 15.5089C91.3012 15.2831 90.8559 14.978 90.4767 14.5938C90.0975 14.2098 89.7976 13.7558 89.5775 13.2313C89.3568 12.7074 89.2467 12.1469 89.2467 11.5503V11.347ZM107.983 23.441L109.188 20.2296C109.225 20.132 109.224 20.0234 109.185 19.9266L102.936 4.22978C102.795 3.8684 102.793 3.55868 102.93 3.30114C103.066 3.0436 103.368 2.91483 103.836 2.91483H107.103C107.323 2.91483 107.504 2.98493 107.645 3.12486C107.786 3.26506 107.892 3.439 107.962 3.64669L111.323 13.4445C111.449 13.8122 111.957 13.8103 112.081 13.442L115.369 3.64669C115.466 3.35774 115.59 3.16355 115.74 3.06385C115.89 2.96468 116.097 2.91483 116.362 2.91483H119.761C120.007 2.91483 120.202 2.94858 120.343 3.01634C120.484 3.0841 120.583 3.17471 120.64 3.28764C120.698 3.40057 120.717 3.52727 120.7 3.6672C120.682 3.80739 120.647 3.94499 120.594 4.0805C120.259 4.93022 119.893 5.85887 119.496 6.86643C119.099 7.87425 118.687 8.92258 118.26 10.0117C117.832 11.1007 117.398 12.208 116.957 13.3332C116.516 14.4583 116.086 15.563 115.667 16.6477C115.248 17.7321 114.845 18.7739 114.457 19.7724C114.069 20.7709 113.714 21.6884 113.392 22.5246C113.225 22.9581 113.07 23.3616 112.927 23.7396C112.867 23.8972 112.719 24 112.553 24H108.357C108.075 24 107.881 23.7105 107.983 23.441Z" fill="#1F2431"/>
<path fill-rule="evenodd" clip-rule="evenodd" d="M2.85133 8.64014C4.42607 8.64014 5.70265 7.35072 5.70265 5.76013C5.70265 4.16955 4.42607 2.88013 2.85133 2.88013C1.27658 2.88013 0 4.16955 0 5.76013C0 7.35072 1.27658 8.64014 2.85133 8.64014Z" fill="#315EFB"/>
<path fill-rule="evenodd" clip-rule="evenodd" d="M12.356 18.24C13.9307 18.24 15.2073 16.9506 15.2073 15.36C15.2073 13.7694 13.9307 12.48 12.356 12.48C10.7812 12.48 9.50464 13.7694 9.50464 15.36C9.50464 16.9506 10.7812 18.24 12.356 18.24Z" fill="#315EFB"/>
<path fill-rule="evenodd" clip-rule="evenodd" d="M12.2831 3.84034C10.668 3.84034 9.35864 5.16283 9.35864 6.79419C9.35864 8.42556 10.668 9.74805 12.2831 9.74805C13.8982 9.74805 15.2075 8.42556 15.2075 6.79419C15.2075 5.16283 13.8982 3.84034 12.2831 3.84034Z" fill="#315EFB"/>
<path fill-rule="evenodd" clip-rule="evenodd" d="M2.92493 13.2925C1.3098 13.2925 0.000488758 14.615 0.000488758 16.2463C0.000488758 17.8777 1.3098 19.2002 2.92493 19.2002C4.54005 19.2002 5.84937 17.8777 5.84937 16.2463C5.84937 14.615 4.54005 13.2925 2.92493 13.2925Z" fill="#315EFB"/>
<path d="M927 0C920.373 0 915 5.373 915 12C915 18.627 920.373 24 927 24C933.627 24 939 18.627 939 12C939 5.37152 933.627 0 927 0ZM932.97 9.30598L932.979 9.68848C932.979 13.5945 930.007 18.0945 924.573 18.0945C922.905 18.0945 921.352 17.6055 920.044 16.767C920.275 16.794 920.511 16.809 920.749 16.809C922.134 16.809 923.407 16.3365 924.418 15.5444C923.125 15.5205 922.035 14.6655 921.658 13.4925C921.84 13.527 922.023 13.5435 922.215 13.5435C922.485 13.5435 922.746 13.509 922.993 13.4415C921.642 13.1685 920.623 11.976 920.623 10.545V10.5075C921.022 10.7295 921.477 10.8615 921.961 10.878C921.169 10.3485 920.647 9.44404 920.647 8.41953C920.647 7.87804 920.793 7.37104 921.046 6.93455C922.503 8.72254 924.681 9.89853 927.136 10.0215C927.085 9.80552 927.06 9.57904 927.06 9.34806C927.06 7.71758 928.383 6.39455 930.015 6.39455C930.864 6.39455 931.632 6.75302 932.172 7.32752C932.844 7.194 933.477 6.94802 934.048 6.61052C933.828 7.30053 933.36 7.87952 932.749 8.2455C933.345 8.17499 933.916 8.01447 934.446 7.78049C934.05 8.37147 933.547 8.89199 932.97 9.30598Z" fill="#1F2431"/>
<path fill-rule="evenodd" clip-rule="evenodd" d="M949 12C949 5.37 954.37 0 961 0C967.63 0 973 5.37 973 12C973 18.63 967.63 24 961 24C954.37 24 949 18.63 949 12ZM959.2 14.4H962.6C964.92 14.4 966.8 12.52 966.8 10.2C966.8 7.88 964.92 6 962.6 6H956.8V18H959.2V14.4ZM959.2 8.4H962.6C963.59 8.4 964.4 9.21 964.4 10.2C964.4 11.19 963.59 12 962.6 12H959.2V8.4Z" fill="#1F2431"/>
<path fill-rule="evenodd" clip-rule="evenodd" d="M1017 12C1017 5.37281 1022.37 0 1029 0C1035.63 0 1041 5.37281 1041 12C1041 18.6272 1035.63 24 1029 24C1022.37 24 1017 18.6272 1017 12ZM1036.63 14.0874C1036.63 13.8923 1036.61 13.701 1036.58 13.5119C1037.19 13.1839 1037.58 12.5519 1037.58 11.8414C1037.58 10.7937 1036.73 9.94152 1035.68 9.94152C1035.18 9.94152 1034.72 10.1414 1034.37 10.4814C1033.08 9.62406 1031.32 9.07777 1029.38 9.00829L1030.44 5.65492L1033.31 6.33109C1033.31 6.33785 1033.31 6.34423 1033.31 6.35059C1033.31 6.35786 1033.31 6.3651 1033.31 6.37283C1033.31 7.22922 1034 7.92651 1034.86 7.92651C1035.72 7.92651 1036.41 7.22922 1036.41 6.37283C1036.41 5.51644 1035.72 4.81964 1034.86 4.81964C1034.2 4.81964 1033.64 5.23139 1033.42 5.80935L1030.32 5.08088C1030.19 5.04847 1030.05 5.12655 1030.01 5.25987L1028.83 8.99896C1026.79 9.02351 1024.96 9.57299 1023.6 10.4544C1023.25 10.1321 1022.8 9.94177 1022.32 9.94177C1021.27 9.94177 1020.42 10.7935 1020.42 11.8414C1020.42 12.5198 1020.79 13.139 1021.36 13.4771C1021.33 13.6774 1021.3 13.8802 1021.3 14.0874C1021.3 16.896 1024.74 19.1806 1028.96 19.1806C1033.19 19.1806 1036.63 16.896 1036.63 14.0874ZM1034.86 7.39445C1035.42 7.39445 1035.88 6.93606 1035.88 6.37258C1035.88 5.8091 1035.42 5.3512 1034.86 5.3512C1034.3 5.3512 1033.84 5.8091 1033.84 6.37258C1033.84 6.93606 1034.3 7.39445 1034.86 7.39445ZM1023.16 10.7694C1022.92 10.5814 1022.63 10.4731 1022.32 10.4731C1021.57 10.4731 1020.95 11.0869 1020.95 11.8411C1020.95 12.2782 1021.16 12.6813 1021.51 12.935C1021.79 12.1213 1022.37 11.3823 1023.16 10.7694ZM1025.27 13.1451C1025.27 12.5217 1025.77 12.0145 1026.4 12.0145C1027.02 12.0145 1027.53 12.5217 1027.53 13.1451C1027.53 13.7685 1027.02 14.2755 1026.4 14.2755C1025.77 14.2755 1025.27 13.7685 1025.27 13.1451ZM1031.74 16.497C1031.17 17.0671 1030.28 17.3438 1029.01 17.3438C1029.01 17.3438 1029.01 17.3433 1029 17.3428C1029 17.3422 1029 17.3416 1029 17.3416C1029 17.3416 1029 17.3422 1029 17.3427C1028.99 17.343 1028.99 17.3433 1028.99 17.3435C1028.99 17.3437 1028.99 17.3438 1028.99 17.3438C1027.72 17.3438 1026.83 17.0671 1026.26 16.497C1026.15 16.3934 1026.15 16.2252 1026.26 16.1211C1026.36 16.0175 1026.53 16.0175 1026.63 16.1211C1027.1 16.5864 1027.87 16.812 1028.99 16.812C1028.99 16.812 1028.99 16.8125 1029 16.813C1029 16.8135 1029 16.814 1029 16.814C1029 16.814 1029 16.8135 1029 16.813C1029.01 16.8125 1029.01 16.812 1029.01 16.812C1030.13 16.812 1030.9 16.5862 1031.37 16.1211C1031.47 16.0175 1031.64 16.0175 1031.74 16.1211C1031.85 16.2252 1031.85 16.3937 1031.74 16.497ZM1031.61 14.2755C1030.99 14.2755 1030.48 13.769 1030.48 13.1451C1030.48 12.5213 1030.98 12.0145 1031.61 12.0145C1032.23 12.0145 1032.74 12.5217 1032.74 13.1451C1032.74 13.7685 1032.23 14.2755 1031.61 14.2755ZM1034.8 10.7955C1035.05 10.5907 1035.35 10.4731 1035.68 10.4731C1036.43 10.4731 1037.05 11.0869 1037.05 11.8411C1037.05 12.3069 1036.81 12.725 1036.44 12.9752C1036.16 12.1571 1035.59 11.4132 1034.8 10.7955Z" fill="#1F2431"/>
<path fill-rule="evenodd" clip-rule="evenodd" d="M1097 24C1103.63 24 1109 18.6274 1109 12C1109 5.37258 1103.63 0 1097 0C1090.37 0 1085 5.37258 1085 12C1085 18.6274 1090.37 24 1097 24ZM1095 8C1095 9.10457 1094.1 10 1093 10C1091.9 10 1091 9.10457 1091 8C1091 6.89543 1091.9 6 1093 6C1094.1 6 1095 6.89543 1095 8ZM1103 8C1103 9.10457 1102.1 10 1101 10C1099.9 10 1099 9.10457 1099 8C1099 6.89543 1099.9 6 1101 6C1102.1 6 1103 6.89543 1103 8ZM1103 16C1103 17.1046 1102.1 18 1101 18C1099.9 18 1099 17.1046 1099 16C1099 14.8954 1099.9 14 1101 14C1102.1 14 1103 14.8954 1103 16ZM1095 16C1095 17.1046 1094.1 18 1093 18C1091.9 18 1091 17.1046 1091 16C1091 14.8954 1091.9 14 1093 14C1094.1 14 1095 14.8954 1095 16Z" fill="#1F2431"/>
<path d="M995.017 11.9365C995.012 11.9365 995.006 11.9362 995 11.936C994.994 11.9362 994.988 11.9365 994.982 11.9365C993.493 11.9365 992.181 11.5595 991.405 12.2715C990.94 12.6987 990.745 13.2135 990.745 13.7677C990.745 16.083 992.6 16.3673 994.982 16.3673H995.017C997.4 16.3673 999.255 16.0828 999.255 13.7677C999.255 13.2133 999.059 12.6987 998.594 12.2715C997.819 11.5595 996.507 11.9365 995.017 11.9365ZM992.992 15.1003C992.539 15.1003 992.171 14.5913 992.171 13.9635C992.171 13.3357 992.539 12.827 992.992 12.827C993.445 12.827 993.813 13.3357 993.813 13.9635C993.813 14.5913 993.445 15.1003 992.992 15.1003ZM997.008 15.1003C996.554 15.1003 996.186 14.5913 996.186 13.9635C996.186 13.3357 996.554 12.827 997.008 12.827C997.461 12.827 997.828 13.3357 997.828 13.9635C997.828 14.5913 997.461 15.1003 997.008 15.1003ZM995 0C988.372 0 983 5.3725 983 12C983 18.6275 988.372 24 995 24C1001.63 24 1007 18.6275 1007 12C1007 5.3725 1001.63 0 995 0ZM996.094 16.9252C995.879 16.9252 995.452 16.9258 995 16.9263C994.548 16.9258 994.12 16.9252 993.905 16.9252C992.954 16.9252 989.189 16.8525 989.189 12.314C989.189 11.2698 989.548 10.5058 990.133 9.8695C990.04 9.63875 990.035 8.32825 990.534 7.07375C990.534 7.07375 991.678 7.19925 993.409 8.387C993.771 8.28675 994.386 8.23675 995 8.23675C995.614 8.23675 996.228 8.2865 996.591 8.387C998.322 7.19925 999.466 7.07375 999.466 7.07375C999.965 8.32825 999.96 9.63875 999.867 9.8695C1000.45 10.5058 1000.81 11.27 1000.81 12.314C1000.81 16.8525 997.045 16.9252 996.094 16.9252Z" fill="#1F2431"/>
<path fill-rule="evenodd" clip-rule="evenodd" d="M1051 12C1051 5.29164 1056.51 0 1063 0C1069.62 0 1075 5.3832 1075 12C1075 18.6168 1069.62 24 1063 24C1056.4 24 1051 18.6257 1051 12ZM1064.09 17.4545H1065.18C1067.98 17.4545 1069.52 14.1265 1067.6 12C1069.52 9.87353 1067.98 6.54545 1065.18 6.54545H1064.09V5.45455C1064.09 4.01062 1061.91 4.01651 1061.91 5.45455V6.54545H1058.64C1057.19 6.54545 1057.2 8.72727 1058.64 8.72727H1059.73V15.2727H1058.64C1057.19 15.2727 1057.2 17.4545 1058.64 17.4545H1061.91V18.5455C1061.91 19.9894 1064.09 19.9835 1064.09 18.5455V17.4545ZM1065.18 8.72729H1061.91V10.9091H1065.18C1066.62 10.9091 1066.62 8.72729 1065.18 8.72729ZM1065.18 13.0909H1061.91V15.2727H1065.18C1066.62 15.2727 1066.62 13.0909 1065.18 13.0909Z" fill="#1F2431"/>
</svg>
